<?xml version="1.0" encoding="UTF-8"?>
<svg version="1.1" xmlns="http://www.w3.org/2000/svg" width="296" height="289">
<path d="M0 0 C1.02286252 0.97660241 2.02402184 1.97654182 3 3 C6.48267953 6.14024033 10.00882735 9.21628209 13.6875 12.125 C22.05838271 18.9122022 28.27900015 27.7465272 34.25 36.625 C34.86814575 37.53838135 34.86814575 37.53838135 35.4987793 38.47021484 C40.18148663 45.54221355 43.72710076 53.19018527 47 61 C47.47695313 62.11890625 47.95390625 63.2378125 48.4453125 64.390625 C55.1930115 80.80717877 57.36135988 97.02606694 57.375 114.6875 C57.37799103 115.71786377 57.37799103 115.71786377 57.38104248 116.76904297 C57.37840622 124.77753492 56.85775529 132.21600535 55 140 C54.66548828 141.89878906 54.66548828 141.89878906 54.32421875 143.8359375 C52.83252312 152.12720278 50.54101998 159.37150635 47 167 C46.26952122 168.666092 45.5402419 170.33271072 44.8125 172 C43.60906456 174.70388899 42.33773047 177.35989757 41 180 C40.34 180 39.68 180 39 180 C38.83951172 181.10021484 38.83951172 181.10021484 38.67578125 182.22265625 C37.95272216 185.19430372 36.93878346 186.95023412 35.1875 189.4375 C34.37925781 190.59765625 34.37925781 190.59765625 33.5546875 191.78125 C33.04164063 192.5134375 32.52859375 193.245625 32 194 C31.26801253 195.14403339 30.53838677 196.28958604 29.8125 197.4375 C28 200 28 200 25 202 C24.54625 202.763125 24.0925 203.52625 23.625 204.3125 C21.76762427 207.38431371 19.59595357 209.53067832 17 212 C16.278125 212.763125 15.55625 213.52625 14.8125 214.3125 C13 216 13 216 11 216 C11 216.66 11 217.32 11 218 C8.99765261 219.78020247 6.99367274 221.43007545 4.875 223.0625 C4.24625977 223.54984619 3.61751953 224.03719238 2.96972656 224.53930664 C-5.64009811 231.12095833 -14.45649336 237.49043936 -24.7265625 241.1796875 C-26.9539038 241.98336735 -29.04726496 242.92705446 -31.1875 243.9375 C-63.33939722 258.14025112 -100.86081332 257.37681306 -133.78125 245.91796875 C-137.69608664 244.29827402 -141.44597031 242.35546781 -145.203125 240.40234375 C-147.87641675 238.99421721 -147.87641675 238.99421721 -150.3125 238.16015625 C-154.40769458 236.39231789 -158.02182697 233.93305727 -161.75 231.5 C-162.52988281 231.00113281 -163.30976563 230.50226563 -164.11328125 229.98828125 C-164.85449219 229.50746094 -165.59570312 229.02664063 -166.359375 228.53125 C-167.03452148 228.09361328 -167.70966797 227.65597656 -168.40527344 227.20507812 C-170 226 -170 226 -171 224 C-172.66209012 222.99241169 -174.3295606 221.99368506 -176 221 C-177.63700095 219.68571466 -179.24216092 218.33075275 -180.8125 216.9375 C-181.60269531 216.24527344 -182.39289063 215.55304688 -183.20703125 214.83984375 C-185 213 -185 213 -185 211 C-185.99 210.67 -186.98 210.34 -188 210 C-188 209.34 -188 208.68 -188 208 C-188.87205078 207.6596875 -188.87205078 207.6596875 -189.76171875 207.3125 C-192.62211404 205.63520015 -193.91857874 203.71552051 -195.8125 201 C-196.50214844 200.01902344 -197.19179687 199.03804687 -197.90234375 198.02734375 C-198.59457031 197.02832031 -199.28679687 196.02929688 -200 195 C-200.66128906 194.07316406 -201.32257813 193.14632812 -202.00390625 192.19140625 C-209 182.3618215 -209 182.3618215 -209 178 C-209.66 178 -210.32 178 -211 178 C-212.38108839 175.01684908 -213.69644279 172.01756393 -215 169 C-215.26796387 168.40928711 -215.53592773 167.81857422 -215.81201172 167.20996094 C-230.42538273 134.74126098 -229.04558763 98.19232673 -217.6875 65.0625 C-217.40455078 64.20720703 -217.12160156 63.35191406 -216.83007812 62.47070312 C-215.10985895 57.4702434 -213.09649624 53.15033368 -210.13500977 48.76245117 C-208.98582216 46.97798456 -208.1093167 45.18819803 -207.25 43.25 C-204.8813604 38.35866293 -201.55838852 34.20972065 -198.25 29.921875 C-195.83582258 26.78679738 -193.54723898 23.57672976 -191.2890625 20.328125 C-190.86367187 19.88984375 -190.43828125 19.4515625 -190 19 C-189.01 19 -188.02 19 -187 19 C-186.835 18.319375 -186.67 17.63875 -186.5 16.9375 C-184.61630633 13.24859989 -182.13458028 11.26071866 -178.97265625 8.6484375 C-177.00476908 7.05709283 -177.00476908 7.05709283 -175.37109375 5.3515625 C-173.74251729 3.74618513 -172.03719052 3.01859526 -170 2 C-169.58234375 1.56042969 -169.1646875 1.12085937 -168.734375 0.66796875 C-165.01676884 -2.90729663 -160.26933575 -5.30593607 -155.84130859 -7.91503906 C-154.08225277 -8.9515339 -152.33190426 -10.00276384 -150.58203125 -11.0546875 C-104.0693304 -38.07261359 -42.83327102 -30.43011161 0 0 Z M-91.90478516 -16.89160156 C-111.41350797 -15.67535809 -129.30818012 -10.97506026 -146.19140625 -1.04882812 C-148.81146363 0.4705788 -151.5023832 1.84969715 -154.1875 3.25 C-158.2758061 5.49733693 -161.55286054 7.85927293 -165 11 C-166.35178172 12.19021418 -167.70610532 13.37754554 -169.0625 14.5625 C-169.74054688 15.15933594 -170.41859375 15.75617187 -171.1171875 16.37109375 C-172.60811353 17.66096129 -174.14106316 18.90223599 -175.6875 20.125 C-181.0321466 24.45849724 -185.05808726 29.41777062 -189 35 C-189.36786621 35.51852539 -189.73573242 36.03705078 -190.11474609 36.57128906 C-206.54247633 59.90304319 -215.43280227 84.40695102 -215.3125 113.1875 C-215.31100952 113.86776245 -215.30951904 114.5480249 -215.3079834 115.24890137 C-215.25390779 128.98975586 -214.13470247 141.63206733 -208.96875 154.5078125 C-207.96874568 157.08040425 -207.22658388 159.65099165 -206.5 162.3125 C-205.30268644 166.44748454 -203.52980726 169.49091251 -201 173 C-200.28426473 174.64619113 -199.5974304 176.30728055 -199 178 C-198.34 178 -197.68 178 -197 178 C-196.91621094 178.70640625 -196.83242187 179.4128125 -196.74609375 180.140625 C-195.82688339 183.6634626 -194.23681452 185.84042903 -192.0625 188.75 C-191.35222656 189.71421875 -190.64195312 190.6784375 -189.91015625 191.671875 C-188.21253281 194.06365289 -188.21253281 194.06365289 -186 195 C-185.3503125 196.11375 -185.3503125 196.11375 -184.6875 197.25 C-181.41805012 202.57799239 -176.49903664 206.35454265 -171.76953125 210.3515625 C-170 212 -170 212 -168 215 C-166.989375 215.33 -165.97875 215.66 -164.9375 216 C-163.968125 216.33 -162.99875 216.66 -162 217 C-161.67 217.99 -161.34 218.98 -161 220 C-159.18220314 221.28659959 -159.18220314 221.28659959 -156.9375 222.375 C-153.99908006 223.91526381 -151.22967157 225.49332164 -148.5 227.375 C-136.23312073 235.03878705 -122.23267538 238.58471644 -108.23339844 241.52734375 C-106.42366498 241.91033938 -104.62072325 242.32533309 -102.8203125 242.75 C-84.70913087 246.71354127 -63.25547663 244.19738949 -46 238 C-44.50019483 237.54102952 -43.00021006 237.08264531 -41.5 236.625 C-31.02722851 233.06387478 -21.4208105 227.72175696 -12 222 C-11.09378906 221.46890625 -10.18757812 220.9378125 -9.25390625 220.390625 C-6.99868613 219.11873424 -6.99868613 219.11873424 -5.4375 217.4375 C-4 216 -4 216 -2.125 215.125 C0.81019586 213.57107278 2.71412186 211.39738439 5 209 C5.9075 208.13375 6.815 207.2675 7.75 206.375 C10.19004674 204.13466888 10.19004674 204.13466888 11 201 C11.59167969 200.72027344 12.18335938 200.44054687 12.79296875 200.15234375 C15.86982591 198.54584311 17.26965517 196.35281559 19.3125 193.5625 C19.70131348 193.03188965 20.09012695 192.5012793 20.49072266 191.95458984 C25.54461543 184.98092118 30.35128854 177.81866741 34 170 C34.62132812 168.84757813 35.24265625 167.69515625 35.8828125 166.5078125 C38.36686602 161.5527169 39.76319557 156.40086698 41.1875 151.0625 C41.69901901 149.17762225 42.21319438 147.29346267 42.73046875 145.41015625 C42.95114014 144.58652588 43.17181152 143.76289551 43.39916992 142.91430664 C44 141 44 141 45 140 C46.45834485 132.03045347 46.15384287 123.76828615 46.13037109 115.69580078 C46.12501018 113.50416142 46.1303463 111.31272692 46.13671875 109.12109375 C46.21607169 94.53277477 46.21607169 94.53277477 42.86328125 80.44921875 C42 78 42 78 41.23046875 75.14453125 C36.50799757 57.78567601 26.15578846 40.15578846 13.4375 27.4375 C11 25 11 25 9.1875 22.625 C4.85915096 17.43098115 -0.17622257 13.3972035 -6 10 C-6.598125 9.37996094 -7.19625 8.75992188 -7.8125 8.12109375 C-11.9070569 4.15083589 -17.03316256 1.73286926 -22 -1 C-22.57234375 -1.33080566 -23.1446875 -1.66161133 -23.734375 -2.00244141 C-40.8436093 -11.85823096 -60.44626743 -15.73846887 -80 -17 C-80.87785156 -17.05929688 -81.75570312 -17.11859375 -82.66015625 -17.1796875 C-85.760013 -17.27539491 -88.81095358 -17.06766683 -91.90478516 -16.89160156 Z " fill="#ECECEB" transform="translate(233,30)"/>
<path d="M0 0 C1.32198642 1.05067331 2.63419549 2.11374032 3.9375 3.1875 C5.03384766 4.04794922 5.03384766 4.04794922 6.15234375 4.92578125 C12.48096009 10.15094653 16.68624553 16.21428848 20.9375 23.1875 C21.7109375 24.34185547 21.7109375 24.34185547 22.5 25.51953125 C24.43150907 29.1043701 25.46878533 32.77848274 26.5625 36.6875 C26.7790625 37.43386719 26.995625 38.18023437 27.21875 38.94921875 C29.01083874 45.19940478 30.07641109 50.76037565 30.0625 57.3125 C30.06507813 58.53195313 30.06765625 59.75140625 30.0703125 61.0078125 C29.9375 64.1875 29.9375 64.1875 28.9375 67.1875 C28.133125 67.496875 27.32875 67.80625 26.5 68.125 C23.81454316 68.90632291 23.81454316 68.90632291 23.015625 71.0859375 C21.13084754 74.75988776 17.52613557 76.36230485 13.9375 78.1875 C10.9375 79 10.9375 79 8.9375 79.1875 C8.07914899 74.09062502 7.88483256 69.23138082 8 64.0625 C8.0835652 52.40009028 6.92093138 42.92073133 1.1796875 32.55078125 C-0.0625 30.1875 -0.0625 30.1875 -0.0625 28.1875 C-0.7225 28.1875 -1.3825 28.1875 -2.0625 28.1875 C-3.10747358 27.01784207 -4.098596 25.79981908 -5.0625 24.5625 C-12.15751149 16.24826293 -24.09427852 10.08286502 -35.0625 9.1875 C-48.16947594 8.36574602 -61.16710689 12.84822637 -71.48046875 21.12890625 C-73.73890469 23.35940278 -75.6394199 25.3413398 -77.0625 28.1875 C-77.7225 28.1875 -78.3825 28.1875 -79.0625 28.1875 C-79.31 28.991875 -79.5575 29.79625 -79.8125 30.625 C-81.0791932 34.23507563 -82.5693897 37.6610439 -84.16015625 41.13671875 C-85.8365797 44.94677204 -86.16727208 47.7957568 -86.10913086 51.92480469 C-86.09679916 53.10322937 -86.08446747 54.28165405 -86.07176208 55.49578857 C-86.05710403 56.77077209 -86.04244598 58.04575562 -86.02734375 59.359375 C-86.01974405 62.75303933 -86.01752719 66.14662725 -86.01766109 69.54029465 C-86.01466536 73.09074845 -85.99400796 76.63944499 -85.93579102 80.18945312 C-85.89120292 82.96040647 -85.87313324 85.72901648 -85.88514709 88.50030518 C-85.8964034 91.10813233 -85.87037095 93.71645149 -85.80271912 96.32342529 C-85.91865392 104.93325015 -85.91865392 104.93325015 -89.19070435 108.52111816 C-92.58865703 110.9714235 -95.90950431 112.74985469 -99.82359314 114.23553467 C-102.62744157 115.42770865 -102.80739314 116.5099387 -104.0625 119.1875 C-106.12109375 120.3125 -106.12109375 120.3125 -108.0625 121.1875 C-109.21579439 108.38995537 -109.28185492 95.59539717 -109.30273438 82.75366211 C-109.31248879 79.12916526 -109.34362658 75.50522512 -109.375 71.88085938 C-109.48749798 47.34418535 -105.64865486 25.60323316 -87.8125 7.4375 C-63.9973315 -15.91217013 -27.39341982 -19.68070938 0 0 Z " fill="#F4F4F3" transform="translate(188.0625,48.8125)"/>
<path d="M0 0 C2.4375 0.75 2.4375 0.75 4.4375 2.75 C5.83729665 11.84867825 1.32026781 20.47923288 -3.671875 27.875 C-5.55116786 30.28927404 -7.37441173 32.611193 -9.5625 34.75 C-10.2225 34.75 -10.8825 34.75 -11.5625 34.75 C-11.5625 35.41 -11.5625 36.07 -11.5625 36.75 C-12.2225 36.75 -12.8825 36.75 -13.5625 36.75 C-13.8925 37.74 -14.2225 38.73 -14.5625 39.75 C-16.234375 41.21484375 -16.234375 41.21484375 -18.3125 42.6875 C-19.02921875 43.21859375 -19.7459375 43.7496875 -20.484375 44.296875 C-22.5625 45.75 -22.5625 45.75 -25.5625 47.4375 C-28.4081801 50.72781762 -28.0584137 53.20287217 -27.8671875 57.44921875 C-27.46902692 61.762625 -26.93601474 66.05255013 -26.34545898 70.34375 C-25.64628704 75.56031895 -25.2982499 80.74377333 -25.0625 86 C-24.45164368 98.58257316 -22.63033934 110.05953055 -16.7109375 121.33984375 C-16.38826904 121.95746582 -16.06560059 122.57508789 -15.7331543 123.21142578 C-14.79337026 124.98084287 -13.82506 126.73502038 -12.85546875 128.48828125 C-11.39292546 132.17777866 -11.4858839 133.97911114 -12.5625 137.75 C-14.31364947 140.57129637 -15.69563172 140.78944644 -18.9375 141.75 C-22.5625 141.75 -22.5625 141.75 -24.97265625 139.7578125 C-27.99335223 136.24961355 -30.31618504 132.62481554 -32.625 128.625 C-33.06473145 127.86799805 -33.50446289 127.11099609 -33.95751953 126.33105469 C-37.19269481 120.6455763 -39.70076385 115.03110013 -41.5625 108.75 C-41.93117187 107.57566406 -42.29984375 106.40132813 -42.6796875 105.19140625 C-43.66038109 102.04980506 -44.62003726 98.90323968 -45.5625 95.75 C-48.53557221 99.09966135 -51.42040443 102.39095438 -53.8125 106.1875 C-54.67875 107.4559375 -54.67875 107.4559375 -55.5625 108.75 C-56.2225 108.75 -56.8825 108.75 -57.5625 108.75 C-57.84222656 109.76320313 -58.12195313 110.77640625 -58.41015625 111.8203125 C-59.45633405 115.48055461 -60.69780987 119.04701964 -62 122.625 C-63.4884776 126.73144703 -64.92958472 130.83664978 -66.25 135 C-67.5625 138.75 -67.5625 138.75 -69.5625 140.75 C-73.02663579 142.00093792 -74.34002948 141.83984387 -77.8125 140.4375 C-80.5625 138.75 -80.5625 138.75 -81.5625 136.75 C-81.8862421 130.87820704 -81.13977246 126.14164647 -79.375 120.5625 C-79.14941406 119.82781494 -78.92382812 119.09312988 -78.69140625 118.33618164 C-75.86853534 109.30201455 -73.01873382 100.37641524 -67.69921875 92.47265625 C-66.07835486 90.01629551 -64.82338063 87.40448555 -63.5625 84.75 C-62.9025 84.75 -62.2425 84.75 -61.5625 84.75 C-60.55323521 80.59373632 -60.46010421 76.70634906 -60.5 72.4375 C-60.50902344 71.18324219 -60.51804688 69.92898437 -60.52734375 68.63671875 C-60.53894531 67.68410156 -60.55054688 66.73148437 -60.5625 65.75 C-64.03766464 66.86067052 -67.30444339 68.05190303 -70.5625 69.6875 C-78.64874953 73.34067872 -88.67421445 75.90218516 -97.5625 74.75 C-100.51072573 72.75994763 -101.38248718 71.67256572 -102.0625 68.1875 C-101.5625 65.75 -101.5625 65.75 -99.8671875 64.171875 C-97.25348459 62.5593532 -95.20089984 62.11151668 -92.1875 61.5625 C-80.42803594 58.78038289 -72.0601196 52.66468055 -63.90625 44.0078125 C-56.34756196 36.72627635 -44.03314614 33.3118801 -34.05078125 30.90234375 C-30.06633196 29.5860923 -27.16349438 27.59314381 -23.9375 25 C-23.3909375 24.58234375 -22.844375 24.1646875 -22.28125 23.734375 C-18.4862428 20.75647461 -15.55414789 17.53140109 -12.5625 13.75 C-11.510625 12.5434375 -11.510625 12.5434375 -10.4375 11.3125 C-8.84922982 9.14186409 -7.97637616 7.51102882 -7 5.0625 C-5.36256372 1.28927728 -4.30935206 -0.42042459 0 0 Z " fill="#F4F4F4" transform="translate(233.5625,100.25)"/>
<path d="M0 0 C3.49556942 3.07504979 5.6273038 7.04550633 8 11 C8.66 11.33 9.32 11.66 10 12 C10 12.66 10 13.32 10 14 C15.07614977 16.1150624 19.86909103 16.34709663 25.29296875 16.55859375 C28.30291376 17.04939286 29.23707796 17.55903102 31 20 C31.5 22.4375 31.5 22.4375 31 25 C28.12979128 28.56301772 25.18321945 29.38091793 20.8125 30 C15.55986519 30.33406473 11.79901156 29.16348768 7.09375 26.91015625 C4.92195445 25.80066823 4.92195445 25.80066823 2 26 C1.15579363 28.70146039 0.69746676 30.24068819 1 33 C2.98780078 35.99319135 5.49472907 38.43646696 8 41 C13.85023117 48.31278897 15.06502927 57.3455873 16.4375 66.375 C16.55496582 67.05288574 16.67243164 67.73077148 16.79345703 68.42919922 C17.28530504 72.08228029 17.16023912 73.74216383 15.19140625 76.91015625 C13 79 13 79 10.5 80.0625 C8 80 8 80 5.875 78.6875 C3.61918201 75.45416088 2.74352606 72.45084967 1.7265625 68.66796875 C0.83239568 65.38454972 -0.29773026 62.20836 -1.44921875 59.0078125 C-2 57 -2 57 -2 53 C-2.5775 52.731875 -3.155 52.46375 -3.75 52.1875 C-6.0325868 50.98280141 -7.9737942 49.59201885 -10 48 C-10.09152344 49.02480469 -10.18304688 50.04960937 -10.27734375 51.10546875 C-11.05223726 55.2815165 -12.29412556 57.74791159 -14.5625 61.3125 C-14.9145752 61.86647461 -15.26665039 62.42044922 -15.62939453 62.99121094 C-24.55887496 76.77943748 -24.55887496 76.77943748 -29 79 C-35.27035831 79.57003257 -35.27035831 79.57003257 -38 77.4375 C-39.45104277 73.90058325 -38.97944171 71.65658237 -38 68 C-36.125 65.9375 -36.125 65.9375 -34 64 C-32.92925408 62.03696582 -31.93704257 60.0302589 -31 58 C-30.68756348 57.43740479 -30.37512695 56.87480957 -30.05322266 56.29516602 C-27.1038678 50.90410886 -25.88520804 45.71547465 -24.875 39.6875 C-24.71032227 38.76557861 -24.54564453 37.84365723 -24.37597656 36.89379883 C-24.05311712 35.08115083 -23.7352138 33.26761138 -23.42285156 31.453125 C-22.88968298 28.36000842 -22.32066102 25.27389201 -21.75 22.1875 C-21.49899873 20.79184637 -21.24848681 19.39610351 -21 18 C-26.00952261 22.59206239 -29.08946757 27.55059234 -31.5 33.875 C-33 37 -33 37 -34.875 38.25 C-37 38 -37 38 -39.8125 36.125 C-42.06755342 32.90349511 -42.34510695 32.41104459 -42.0625 28.75 C-41.17881388 23.77823323 -39.38961365 19.42853316 -37 15 C-36.67386719 14.39285156 -36.34773438 13.78570312 -36.01171875 13.16015625 C-31.28295717 5.57694222 -23.33070554 0.32869335 -14.875 -2.1875 C-9.27569911 -3.3059077 -4.93218057 -2.98766585 0 0 Z " fill="#F0F0F0" transform="translate(117,162)"/>
<path d="M0 0 C0.7890625 2.1171875 0.7890625 2.1171875 1 4 C1.66 4 2.32 4 3 4 C5.30916313 7.84860521 6.72269967 11.27719352 6.546875 15.83984375 C5.3895697 20.41119967 2.32314964 23.77837224 -1 27 C-5.9759632 29.87500096 -11.5313082 29.2620058 -17 28 C-20.86162833 25.69945546 -23.28156726 23.16041611 -25 19 C-25.95373996 12.16098666 -25.08048048 7.55398732 -21 2 C-15.07690828 -3.92309172 -7.0646912 -3.87069288 0 0 Z " fill="#F2F2F2" transform="translate(189,105)"/>
<path d="M0 0 C3.45383685 2.35488876 4.9543281 4.07646328 6.75 7.875 C7.39745016 12.41442587 7.25938338 16.4105228 5.75 20.75 C2.31028603 24.40469609 -1.50141777 26.72407951 -6.59765625 27.00390625 C-11.07015207 26.63804265 -14.76386369 25.84846921 -18.25 22.875 C-21.24588982 18.43281854 -22.15554204 14.14545819 -21.25 8.875 C-19.86471182 4.94610358 -17.94476107 2.36449075 -14.5 -0.0625 C-9.25495857 -1.77722508 -5.22141079 -1.80741143 0 0 Z " fill="#F2F2F1" transform="translate(123.25,131.125)"/>
<path d="M0 0 C0.02511184 5.79426778 0.04305026 11.58850245 0.05493164 17.3828125 C0.05989571 19.34538323 0.06666917 21.3079504 0.07543945 23.27050781 C0.1303219 35.88701486 -0.13241752 48.41174005 -1 61 C-1.99 60.67 -2.98 60.34 -4 60 C-6.73951243 48.74904643 -7.43848652 37.78907797 -7.70874023 26.23120117 C-7.73524658 25.1094751 -7.76175293 23.98774902 -7.7890625 22.83203125 C-7.81540771 21.32733276 -7.81540771 21.32733276 -7.84228516 19.79223633 C-7.9945067 17.09725521 -8.43342657 14.63426597 -9 12 C-9.36978852 7.85836853 -9.40134882 5.69864425 -7.3125 2.0625 C-4.5455584 -0.40531278 -3.56530877 -0.1951164 0 0 Z " fill="#DEDEDE" transform="translate(218,147)"/>
<path d="M0 0 C0.46454945 6.96824172 -0.69052383 14.36211802 -4.48046875 20.33203125 C-5.23263672 21.15767578 -5.23263672 21.15767578 -6 22 C-6.66 22 -7.32 22 -8 22 C-8 15.73 -8 9.46 -8 3 C-2 0 -2 0 0 0 Z " fill="#D5D5D4" transform="translate(88,200)"/>
<path d="M0 0 C0.66 0.33 1.32 0.66 2 1 C-2.61534219 5.06478107 -7.25585812 9.08608295 -12 13 C-12.66 12.34 -13.32 11.68 -14 11 C-9.5128202 7.03109629 -4.92245182 3.41557881 0 0 Z " fill="#C8C8C8" transform="translate(116,44)"/>
<path d="M0 0 C0 3 0 3 -2.5 5.6875 C-3.325 6.450625 -4.15 7.21375 -5 8 C-5.99 7.67 -6.98 7.34 -8 7 C-7.34 7 -6.68 7 -6 7 C-5.7525 6.401875 -5.505 5.80375 -5.25 5.1875 C-3.83629988 2.71352479 -2.34944617 1.56629745 0 0 Z " fill="#D0D0CF" transform="translate(239,237)"/>
<path d="M0 0 C0.66 0.99 1.32 1.98 2 3 C0.02 4.98 -1.96 6.96 -4 9 C-4.66 8.67 -5.32 8.34 -6 8 C-4.02 5.36 -2.04 2.72 0 0 Z " fill="#C6C7C4" transform="translate(256,217)"/>
<path d="M0 0 C0.99 0.33 1.98 0.66 3 1 C2.360625 1.598125 1.72125 2.19625 1.0625 2.8125 C-1.20310389 4.90810337 -1.20310389 4.90810337 -2 8 C-2.66 8 -3.32 8 -4 8 C-3.40072174 4.64404172 -2.15377564 2.62198774 0 0 Z " fill="#C0C0BF" transform="translate(107,132)"/>
<path d="M0 0 C0.66 0.99 1.32 1.98 2 3 C-2.75 7 -2.75 7 -5 7 C-3.70700306 4.11562221 -2.34058637 2.12780579 0 0 Z " fill="#C4C4C4" transform="translate(98,59)"/>
<path d="M0 0 C3.96 1.98 3.96 1.98 8 4 C6.02 4.99 6.02 4.99 4 6 C4 5.34 4 4.68 4 4 C2.68 3.34 1.36 2.68 0 2 C0 1.34 0 0.68 0 0 Z " fill="#D9D9D7" transform="translate(81,255)"/>
</svg>
